<svg version="1.1" xmlns="http://www.w3.org/2000/svg" xmlns:xlink="http://www.w3.org/1999/xlink" width="41.22313" height="60.9047" viewBox="0,0,41.22313,60.9047"><g transform="translate(-206.59278,-158.51726)"><g data-paper-data="{&quot;isPaintingLayer&quot;:true}" fill-rule="nonzero" stroke="#000000" stroke-width="1.2" stroke-linecap="butt" stroke-linejoin="miter" stroke-miterlimit="10" stroke-dasharray="" stroke-dashoffset="0" style="mix-blend-mode: normal"><path d="M215.65294,216.74612l-0.00316,-25.52171c0,0 0.52137,-0.99278 0.89478,-1.39237c0.28224,-0.30202 1.14975,-0.79546 1.14975,-0.79546h11.05379c0,0 0.8385,0.45085 1.11852,0.7411c0.31502,0.32653 0.67901,1.12206 0.67901,1.12206v25.76511c0,0 -0.45322,1.08692 -0.82878,1.4545c-0.35826,0.35065 -1.37514,0.70261 -1.37514,0.70261h-10.72869c0,0 -0.96544,-0.53479 -1.32685,-0.91755c-0.24967,-0.26442 -0.63323,-1.15829 -0.63323,-1.15829z" fill="#c90000"/><path d="M207.19528,189.53097l-0.00248,-20.02464c0,0 0.40907,-0.77894 0.70205,-1.09247c0.22145,-0.23697 0.90211,-0.62413 0.90211,-0.62413h8.67294c0,0 0.6579,0.35374 0.87761,0.58147c0.24717,0.25619 0.53276,0.88038 0.53276,0.88038v20.21561c0,0 -0.3556,0.85281 -0.65027,1.14122c-0.28109,0.27513 -1.07895,0.55128 -1.07895,0.55128h-8.41785c0,0 -0.7575,-0.4196 -1.04107,-0.71991c-0.1959,-0.20747 -0.49684,-0.90882 -0.49684,-0.90882z" fill="#c90000"/><path d="M229.22847,216.50908l-0.00316,-25.52171c0,0 0.52136,-0.99278 0.89477,-1.39236c0.28224,-0.30202 1.14975,-0.79546 1.14975,-0.79546h11.0538c0,0 0.83849,0.45085 1.11852,0.7411c0.31502,0.32653 0.67901,1.12206 0.67901,1.12206v25.76511c0,0 -0.45322,1.08692 -0.82879,1.4545c-0.35826,0.35065 -1.37514,0.70261 -1.37514,0.70261h-10.72868c0,0 -0.96544,-0.53479 -1.32685,-0.91755c-0.24967,-0.26442 -0.63323,-1.15829 -0.63323,-1.15829z" fill="#c90000"/><path d="M215.31694,191.38706l-0.00618,-29.72192c0,0 1.02013,-1.15617 1.75076,-1.62151c0.55225,-0.35173 2.24965,-0.92637 2.24965,-0.92637h21.62836c0,0 1.64063,0.52504 2.18854,0.86306c0.61639,0.38026 1.32859,1.30672 1.32859,1.30672v30.00538c0,0 -0.8868,1.26579 -1.62163,1.69387c-0.70099,0.40836 -2.69065,0.81824 -2.69065,0.81824h-20.99223c0,0 -1.88903,-0.6228 -2.59618,-1.06855c-0.48852,-0.30793 -1.23901,-1.34892 -1.23901,-1.34892z" fill="#c90000"/><path d="M245.92622,175.93492l-16.02487,0.20552c0,0 -0.62752,-0.31945 -0.88139,-0.55072c-0.19189,-0.17481 -0.50863,-0.71558 -0.50863,-0.71558l-0.08815,-6.9406c0,0 0.27639,-0.53008 0.4564,-0.70822c0.20251,-0.2004 0.69912,-0.43529 0.69912,-0.43529l16.17772,-0.20548c0,0 0.68608,0.2759 0.91988,0.50879c0.22303,0.22215 0.45213,0.85783 0.45213,0.85783l0.08556,6.73646c0,0 -0.32809,0.61046 -0.56554,0.84044c-0.16404,0.15888 -0.72223,0.40684 -0.72223,0.40684z" fill="#00e4ff"/></g></g></svg>